<svg id="Layer_1" data-name="Layer 1" xmlns="http://www.w3.org/2000/svg" xmlns:xlink="http://www.w3.org/1999/xlink" viewBox="0 0 512 512"><defs><linearGradient id="linear-gradient" x1="256" y1="512" x2="256" gradientUnits="userSpaceOnUse"><stop offset="0" stop-color="#2f4e6e"/><stop offset="1" stop-color="#8abce5"/></linearGradient></defs><title>shopping_cart</title><path d="M512,412.3A99.71,99.71,0,0,1,412.3,512H99.69A99.7,99.7,0,0,1,0,412.3V99.7A99.7,99.7,0,0,1,99.69,0H412.3A99.71,99.71,0,0,1,512,99.7Z" fill="url(#linear-gradient)"/><path d="M439.27,3.79a99.27,99.27,0,0,0-27-3.8H370L354.33,4.56s6.52,22.17,6.61,22.49c.29,2,3.07,20.95,5.58,38.09L114.31,138.74a31.34,31.34,0,0,0-20.56,18.37,30.67,30.67,0,0,0-2.16,12.37A32.28,32.28,0,0,0,96,184.63l77.84,134a35.94,35.94,0,0,0,14.43,13.58,30.14,30.14,0,0,0,.13,17.31L194,368.64a33.59,33.59,0,0,0,41.56,22.83l1.09-.32a46.68,46.68,0,1,0,91-19.72,47.41,47.41,0,0,0-2.32-6.17l59.62-17.4a45.79,45.79,0,0,0,1.34,6.41,46.76,46.76,0,1,0,87.45-32.32l20.63-6s-6.52-22.18-6.61-22.48c-.43-3-28.33-193.45-33.31-227.43l34.32-10A33.18,33.18,0,0,0,499,50.85,100.72,100.72,0,0,0,486.24,33,99.39,99.39,0,0,0,439.27,3.79Z" fill="#1c437d"/><path d="M262.41,212.56a13.95,13.95,0,1,0,17,10.06A14,14,0,0,0,262.41,212.56Z" fill="none"/><path d="M306.65,201.22a13.95,13.95,0,1,0,17,10.06A14,14,0,0,0,306.65,201.22Z" fill="none"/><path d="M257,170.37a13.95,13.95,0,1,0-10,17A14,14,0,0,0,257,170.37Z" fill="none"/><path d="M218.18,223.9a13.95,13.95,0,1,0,17,10.06A13.95,13.95,0,0,0,218.18,223.9Z" fill="none"/><path d="M207.69,183a13.95,13.95,0,1,0-10,17A13.94,13.94,0,0,0,207.69,183Z" fill="none"/><path d="M306.25,157.73a13.95,13.95,0,1,0-10,17A13.93,13.93,0,0,0,306.25,157.73Z" fill="none"/><path d="M394.77,149.4a13.94,13.94,0,1,0-17-10A13.95,13.95,0,0,0,394.77,149.4Z" fill="none"/><path d="M395.09,178.51a13.95,13.95,0,1,0,17,10.08A14,14,0,0,0,395.09,178.51Z" fill="none"/><path d="M345.47,162a13.93,13.93,0,1,0-17-10A14,14,0,0,0,345.47,162Z" fill="none"/><path d="M350.85,189.87a13.95,13.95,0,1,0,17,10.06A14,14,0,0,0,350.85,189.87Z" fill="none"/><path d="M276.4,353.06a23.3,23.3,0,1,0,28.27,16.78A23.25,23.25,0,0,0,276.4,353.06Z" fill="#fff"/><path d="M426.16,314.63a23.3,23.3,0,1,0,28.27,16.79A23.26,23.26,0,0,0,426.16,314.63Z" fill="#fff"/><path d="M439.27,3.79,394.91,15.17l.37,1.44,6.85,60.58a7.31,7.31,0,0,0-1.57.08l-272.81,70c-5.31,1.36-7.52,6.43-4.91,11.28L196.25,295a13.46,13.46,0,0,0,14.42,6.33l210.71-54.05L423.63,267,235.51,315.26,222,318.74l-3,.75a10.06,10.06,0,0,0-7.16,12.19l5,19.29A10,10,0,0,0,229,358.18l3-.76L245.44,354l221.79-56.91-.37-1.44L438.54,45.22l38-9.75,9.7-2.48A99.39,99.39,0,0,0,439.27,3.79ZM197.65,200a13.93,13.93,0,1,1,10-17A13.94,13.94,0,0,1,197.65,200Zm27.46,51a13.95,13.95,0,1,1,10-17A13.92,13.92,0,0,1,225.11,250.92ZM230,177.3a13.95,13.95,0,1,1,17,10A14,14,0,0,1,230,177.3Zm39.38,62.28a13.95,13.95,0,1,1,10-17A13.94,13.94,0,0,1,269.34,239.58Zm9.9-74.92a13.95,13.95,0,1,1,17,10A14,14,0,0,1,279.23,164.66Zm34.35,63.58a13.95,13.95,0,1,1,10-17A14,14,0,0,1,313.58,228.23ZM328.52,152a14,14,0,1,1,17,10A13.93,13.93,0,0,1,328.52,152Zm29.26,64.88a13.95,13.95,0,1,1,10-17A13.92,13.92,0,0,1,357.77,216.89Zm20-77.52a13.95,13.95,0,1,1,17,10A13.94,13.94,0,0,1,377.81,139.37ZM402,205.53a13.95,13.95,0,1,1,10-16.94A13.93,13.93,0,0,1,402,205.53Z" fill="#fff"/></svg>