<svg width="42" height="30" viewBox="0 0 42 30" fill="none" xmlns="http://www.w3.org/2000/svg">
<g clip-path="url(#clip0_174_6587)" filter="url(#filter0_d_174_6587)">
<path d="M4.22827 2.74463C4.22827 1.22881 5.47121 0 7.00445 0H34.7662C36.2994 0 37.5424 1.22881 37.5424 2.74463V19.2124C37.5424 20.7282 36.2994 21.957 34.7662 21.957H7.00445C5.47121 21.957 4.22827 20.7282 4.22827 19.2124V2.74463Z" fill="#D4DEF7"/>
<path d="M28.8132 6.77289L28.1686 8.17772H29.4613L28.8132 6.77289ZM21.375 7.64344C21.4965 7.58643 21.5681 7.46242 21.5681 7.30842C21.5681 7.15751 21.4929 7.04821 21.3714 6.99685C21.2608 6.93992 21.0905 6.93334 20.9273 6.93334H19.7741V7.71609H20.9118C21.094 7.71613 21.2463 7.71372 21.375 7.64344ZM6.59819 6.77289L5.9609 8.17772H7.23933L6.59819 6.77289ZM36.2697 15.7727H34.4612V15.0168H36.2624C36.441 15.0168 36.5661 14.9958 36.6414 14.9295C36.7126 14.8704 36.7528 14.787 36.7521 14.6997C36.7521 14.597 36.7067 14.5154 36.6376 14.4666C36.5698 14.4128 36.4707 14.3883 36.3076 14.3883C35.4283 14.3615 34.3312 14.4127 34.3312 13.2973C34.3312 12.7861 34.6922 12.248 35.675 12.248H37.5405V11.5467H35.8073C35.2842 11.5467 34.9042 11.6594 34.6351 11.8346V11.5467H32.0715C31.6616 11.5467 31.1804 11.6381 30.9529 11.8346V11.5467H26.3746V11.8346C26.0104 11.5982 25.3955 11.5467 25.1119 11.5467H22.0921V11.8346C21.8039 11.5835 21.1628 11.5467 20.7722 11.5467H17.3926L16.6194 12.2995L15.895 11.5467H10.8466V16.4654H15.7998L16.5966 15.7005L17.3472 16.4654L20.4004 16.4678V15.3107H20.7007C21.1057 15.3166 21.5835 15.3018 22.0051 15.1379V16.4652H24.5235V15.1832H24.645C24.7999 15.1832 24.8153 15.189 24.8153 15.3284V16.4649H32.4657C32.9515 16.4649 33.4592 16.3532 33.7403 16.1501V16.4649H36.167C36.6719 16.4649 37.1651 16.4013 37.5404 16.2383V15.322C37.313 15.6212 36.8695 15.7729 36.2696 15.7729L36.2697 15.7727ZM20.7408 14.6113H19.5722V15.7936H17.7519L16.5987 14.6268L15.4003 15.7936H11.6907V12.2688H15.4574L16.6096 13.4242L17.8008 12.2688H20.7933C21.5365 12.2688 22.3716 12.4539 22.3716 13.43C22.3716 14.4092 21.5594 14.6113 20.7408 14.6113ZM26.3599 14.4515C26.4921 14.6235 26.5112 14.7841 26.5151 15.0948V15.7936H25.5747V15.3526C25.5747 15.1406 25.5975 14.8266 25.4234 14.6627C25.2867 14.5365 25.078 14.5063 24.7362 14.5063H23.7354V15.7936H22.7944V12.2688H24.9565C25.4308 12.2688 25.776 12.2878 26.0834 12.4351C26.379 12.5957 26.565 12.8158 26.565 13.2179C26.5649 13.7804 26.1477 14.0674 25.9012 14.1556C26.1095 14.2248 26.2799 14.3488 26.3599 14.4515ZM30.2284 12.9978H28.0354V13.6385H30.1748V14.3577H28.0354V15.059L30.2284 15.0622V15.7936H27.1027V12.2688H30.2284V12.9978ZM32.635 15.7935H30.811V15.0377H32.6277C32.8054 15.0377 32.9313 15.0165 33.0103 14.9503C33.0746 14.8959 33.1209 14.8166 33.1209 14.7206C33.1209 14.6178 33.0708 14.5363 33.0066 14.4874C32.935 14.4336 32.8361 14.4093 32.6731 14.4093C31.7973 14.3823 30.7004 14.4335 30.7004 13.3182C30.7004 12.807 31.0576 12.2688 32.0394 12.2688H33.917V13.0189H32.199C32.0287 13.0189 31.918 13.0248 31.8238 13.0828C31.7211 13.1399 31.6831 13.2245 31.6831 13.3362C31.6831 13.4692 31.7702 13.5597 31.888 13.5988C31.9868 13.6297 32.0929 13.6387 32.2524 13.6387L32.7566 13.6511C33.2649 13.6621 33.614 13.7413 33.8261 13.9345C34.0083 14.1042 34.1063 14.3185 34.1063 14.6812C34.1062 15.4395 33.5794 15.7935 32.635 15.7935ZM25.3715 13.0546C25.2583 12.9941 25.0913 12.9909 24.9247 12.9909H23.7714V13.7825H24.9093C25.0914 13.7825 25.2463 13.7767 25.3715 13.7099C25.4929 13.6439 25.5655 13.5223 25.5655 13.3716C25.5655 13.2208 25.4929 13.1117 25.3715 13.0546ZM35.8353 12.9909C35.665 12.9909 35.5517 12.9967 35.4563 13.0545C35.3575 13.1117 35.3196 13.1963 35.3196 13.3082C35.3196 13.441 35.403 13.5316 35.5243 13.5707C35.6232 13.6016 35.7292 13.6107 35.8852 13.6107L36.3929 13.6228C36.905 13.6342 37.247 13.7135 37.4555 13.9067C37.4935 13.9335 37.5163 13.9636 37.5424 13.9938V12.9909H35.8354L35.8353 12.9909ZM20.7732 12.9909H19.5521V13.8886H20.7623C21.1221 13.8886 21.3459 13.728 21.3461 13.4231C21.3459 13.1148 21.1113 12.9909 20.7732 12.9909ZM12.6234 12.9909V13.6317H14.6794V14.3509H12.6234V15.0521H14.926L15.9957 14.0181L14.9714 12.9909H12.6234ZM18.6359 15.4558V12.6299L17.1981 14.0201L18.6359 15.4558ZM12.702 9.79658V10.4039H20.5263L20.5227 9.11908H20.6741C20.7801 9.12241 20.811 9.13119 20.811 9.28863V10.404H24.8578V10.1048C25.1842 10.2621 25.6918 10.404 26.3599 10.404H28.0623L28.4267 9.62125H29.2345L29.5908 10.404H32.8715V9.66046L33.3682 10.4039H35.9973V5.48926H33.3955V6.06969L33.0312 5.48926H30.3614V6.06969L30.0269 5.48926H26.4206C25.8169 5.48926 25.2864 5.56503 24.8577 5.77625V5.48926H22.369V5.77625C22.0962 5.55854 21.7246 5.48926 21.3114 5.48926H12.2195L11.6095 6.7587L10.983 5.48926H8.11931V6.06969L7.80466 5.48926H5.36243L4.22831 7.82606V9.69526L5.90533 6.17129H7.29682L8.88953 9.50774V6.17129H10.4181L11.6437 8.56186L12.7697 6.17129H14.3289V9.69526H13.369L13.3655 6.93535L12.0075 9.69526H11.1852L9.82367 6.9329V9.69526H7.91874L7.5589 8.90923H5.60896L5.2454 9.69526H4.22827V10.4042H5.82849L6.18928 9.62145H6.99712L7.35696 10.4042H10.5053V9.80572L10.7863 10.4067H12.4207L12.7018 9.7967L12.702 9.79658ZM25.0315 6.58204C25.3341 6.30079 25.8083 6.17109 26.4537 6.17109H27.3603V6.92617H26.4727C26.1311 6.92617 25.9379 6.97187 25.7521 7.13497C25.5924 7.28332 25.4829 7.56381 25.4829 7.93315C25.4829 8.31071 25.5664 8.58291 25.7403 8.76072C25.8845 8.90017 26.1466 8.94247 26.3931 8.94247H26.8138L28.1337 6.17121H29.5369L31.1225 9.50434V6.17125H32.5485L34.1947 8.62549V6.17125H35.154V9.6951H33.8269L32.0517 7.05022V9.6951H30.1444L29.78 8.90907H27.8345L27.4809 9.6951H26.3849C25.9298 9.6951 25.3534 9.60457 25.027 9.30531C24.6978 9.00613 24.5267 8.60083 24.5267 7.96006C24.5266 7.43736 24.6288 6.9596 25.0315 6.58204ZM23.1052 6.17113H24.0607V9.6951H23.1052V6.17113ZM18.7969 6.17113H20.9509C21.4294 6.17113 21.7822 6.18255 22.085 6.33992C22.3813 6.49733 22.5589 6.72714 22.5589 7.12014C22.5589 7.68205 22.1419 7.97229 21.8991 8.05949C22.1039 8.12965 22.2791 8.25358 22.3625 8.35622C22.4947 8.53151 22.5175 8.68807 22.5175 9.00277V9.69506H21.5729L21.5694 9.25066C21.5694 9.03857 21.5919 8.73362 21.4215 8.56418C21.2847 8.4403 21.0761 8.41331 20.7389 8.41331H19.7335V9.6951H18.797L18.7969 6.17113ZM15.0215 6.17113H18.1501V6.90496H15.9581V7.54016H18.0974V8.26252H15.9581V8.96628H18.1501V9.69506H15.0215V6.17113Z" fill="#2557D6"/>
</g>
<defs>
<filter id="filter0_d_174_6587" x="0.228271" y="0" width="41.3141" height="29.957" filterUnits="userSpaceOnUse" color-interpolation-filters="sRGB">
<feFlood flood-opacity="0" result="BackgroundImageFix"/>
<feColorMatrix in="SourceAlpha" type="matrix" values="0 0 0 0 0 0 0 0 0 0 0 0 0 0 0 0 0 0 127 0" result="hardAlpha"/>
<feOffset dy="4"/>
<feGaussianBlur stdDeviation="2"/>
<feComposite in2="hardAlpha" operator="out"/>
<feColorMatrix type="matrix" values="0 0 0 0 0 0 0 0 0 0 0 0 0 0 0 0 0 0 0.25 0"/>
<feBlend mode="normal" in2="BackgroundImageFix" result="effect1_dropShadow_174_6587"/>
<feBlend mode="normal" in="SourceGraphic" in2="effect1_dropShadow_174_6587" result="shape"/>
</filter>
<clipPath id="clip0_174_6587">
<rect width="33.3141" height="21.957" fill="white" transform="translate(4.22827)"/>
</clipPath>
</defs>
</svg>
